# xmcd CD database file
#
# Track frame offsets:
#	150
#	25408
#	56553
#	83477
#	112749
#	154864
#	172875
#	200956
#	236302
#	267037
#
# Disc length: 4045 seconds
#
# Revision: 0
# Processed by: cddbd v1.5.2PL0 Copyright (c) Steve Scherf et al.
# Submitted via: CDex 1.51
#
DISCID=740fcb0a
DTITLE=Yves Langlois - Metamorphoses Jazz
DYEAR=2006
DGENRE=Jazz
TTITLE0=01-TWINKLE, TWINKLE... blue moon
TTITLE1=02-MAMBO no 5
TTITLE2=03-I REMEMBER valentine
TTITLE3=04-BEAUTIFUL autumn love
TTITLE4=05-FASCINATING doll
TTITLE5=06-OVER the rainbow
TTITLE6=07-INSENSITIVE prelude
TTITLE7=08-NIGHT AND DAY I remember
TTITLE8=09-TOCATTA tango
TTITLE9=10-FLY ME TO blue bossa
EXTD=YEAR: 2006
EXTT0=
EXTT1=
EXTT2=
EXTT3=
EXTT4=
EXTT5=
EXTT6=
EXTT7=
EXTT8=
EXTT9=
PLAYORDER=
